# xmcd
#
# Track frame offsets:
#	150
#	20730
#	41478
#	62630
#	83572
#	106103
#	126749
#	147732
#	171305
#	194849
#
# Disc length: 2898 seconds
#
# Revision: 0
# Processed by: cddbd v1.5.1PL0 Copyright (c) Steve Scherf et al.
# Submitted via: dBpowerAMP V4.0
#
DISCID=970b500a
DTITLE=T. K. Soul - Love Games
DYEAR=2005
DGENRE=Southern Soul
TTITLE0=Cheating and Lying
TTITLE1=Let's Stay Home Tonight
TTITLE2=Candy Girl
TTITLE3=You Ring My Bell
TTITLE4=We Be Sliding
TTITLE5=If You Don't Want Me
TTITLE6=Jodette
TTITLE7=Real Love Is Calling
TTITLE8=Single Man
TTITLE9=I Want You (For Christmas)
EXTD=
EXTT0=
EXTT1=
EXTT2=
EXTT3=
EXTT4=
EXTT5=
EXTT6=
EXTT7=
EXTT8=
EXTT9=
PLAYORDER=
